<svg xmlns="http://www.w3.org/2000/svg" viewBox="0 0 256 256" fill="none"><g transform="scale(6.4)"><path opacity="0.2" d="M32.5 13.75H23.75V5L32.5 13.75Z" fill="currentColor"/>
<path d="M27 35H31.25C31.5815 35 31.8995 34.8683 32.1339 34.6339C32.3683 34.3995 32.5 34.0815 32.5 33.75V13.75L23.75 5H8.75C8.41848 5 8.10054 5.1317 7.86612 5.36612C7.6317 5.60054 7.5 5.91848 7.5 6.25V13.75M23.75 5V13.75H32.5" stroke="currentColor" stroke-width="2.5" stroke-linecap="round" stroke-linejoin="round"/>
<path opacity="0.2" d="M22.4752 26.15C22.4752 27.5062 20.6346 28.3781 20.1502 29.6375C19.6658 30.8968 20.2471 32.5437 19.2783 33.5125C18.3096 34.4812 16.6627 33.8031 15.4033 34.3843C14.1439 34.9656 13.5627 36.225 12.4002 36.225C11.0439 36.225 10.1721 34.3843 8.9127 33.9C7.65332 33.4156 6.00645 33.9968 5.0377 33.0281C4.06895 32.0593 4.74707 30.4125 4.16582 29.1531C3.58457 27.8937 2.3252 27.3125 2.3252 26.15C2.3252 24.7937 4.16582 23.9218 4.6502 22.6625C5.13457 21.4031 4.55332 19.7562 5.52207 18.7875C6.49082 17.8187 8.1377 18.4968 9.39707 17.9156C10.6564 17.3343 11.2377 16.075 12.4002 16.075C13.7564 16.075 14.6283 17.9156 15.8877 18.4C17.1471 18.8843 18.7939 18.3031 19.7627 19.2718C20.7314 20.2406 20.0533 21.8875 20.6346 23.1468C21.2158 24.4062 22.4752 24.9875 22.4752 26.15Z" fill="currentColor"/>
<path d="M8.1377 26.5375L10.8502 29.25L16.6627 23.4375M22.4752 26.15C22.4752 27.5062 20.6346 28.3781 20.1502 29.6375C19.6658 30.8968 20.2471 32.5437 19.2783 33.5125C18.3096 34.4812 16.6627 33.8031 15.4033 34.3843C14.1439 34.9656 13.5627 36.225 12.4002 36.225C11.0439 36.225 10.1721 34.3843 8.9127 33.9C7.65332 33.4156 6.00645 33.9968 5.0377 33.0281C4.06895 32.0593 4.74707 30.4125 4.16582 29.1531C3.58457 27.8937 2.3252 27.3125 2.3252 26.15C2.3252 24.7937 4.16582 23.9218 4.6502 22.6625C5.13457 21.4031 4.55332 19.7562 5.52207 18.7875C6.49082 17.8187 8.1377 18.4968 9.39707 17.9156C10.6564 17.3343 11.2377 16.075 12.4002 16.075C13.7564 16.075 14.6283 17.9156 15.8877 18.4C17.1471 18.8843 18.7939 18.3031 19.7627 19.2718C20.7314 20.2406 20.0533 21.8875 20.6346 23.1468C21.2158 24.4062 22.4752 24.9875 22.4752 26.15Z" stroke="currentColor" stroke-width="2.51875" stroke-linecap="round" stroke-linejoin="round"/></g></svg>
